<?xml version="1.0" standalone="no"?>
<!DOCTYPE svg PUBLIC "-//W3C//DTD SVG 20010904//EN"
 "http://www.w3.org/TR/2001/REC-SVG-20010904/DTD/svg10.dtd">
<svg version="1.0" xmlns="http://www.w3.org/2000/svg"
 width="1024.000000pt" height="1024.000000pt" viewBox="0 0 1024.000000 1024.000000"
 preserveAspectRatio="xMidYMid meet">

<g transform="translate(0.000000,1024.000000) scale(0.100000,-0.100000)"
fill="#000000" stroke="none">
<path d="M7052 5118 l3 -673 363 -3 362 -2 0 675 0 675 -365 0 -365 0 2 -672z
m676 0 l-3 -623 -310 0 -310 0 -3 610 c-1 336 0 616 3 623 3 9 76 12 315 12
l310 0 -2 -622z"/>
<path d="M7203 5631 c8 -68 47 -140 108 -201 l51 -51 -56 -59 c-68 -71 -86
-110 -86 -185 0 -68 23 -118 91 -196 l48 -56 -40 -39 c-60 -58 -97 -119 -109
-181 -10 -47 -10 -58 3 -70 13 -14 16 -13 26 6 11 20 19 21 161 21 141 0 150
-1 160 -21 10 -17 14 -18 27 -8 16 14 12 74 -8 112 -11 19 -17 19 -155 12 -79
-3 -144 -3 -144 2 0 4 7 17 15 28 14 17 26 19 102 16 79 -3 86 -1 73 13 -10
14 -24 15 -71 10 -33 -4 -59 -4 -59 0 0 3 45 50 99 104 63 61 107 114 120 142
24 52 28 151 8 168 -9 7 -61 11 -145 9 -132 -2 -143 1 -122 33 13 21 185 17
209 -4 23 -21 41 -20 41 2 0 23 -41 79 -81 112 l-31 26 51 54 c60 65 98 136
107 203 6 43 5 47 -14 47 -11 0 -22 -7 -26 -15 -4 -12 -32 -15 -161 -15 -131
0 -155 2 -155 15 0 9 -9 15 -21 15 -20 0 -21 -4 -16 -49z m341 -10 c4 -5 3
-16 0 -25 -6 -14 -25 -16 -148 -14 -138 3 -141 4 -144 26 -3 22 -3 22 142 22
80 0 147 -4 150 -9z m-34 -90 c-16 -30 -27 -34 -110 -34 -83 0 -94 4 -110 34
-10 18 -6 19 110 19 116 0 120 -1 110 -19z m-78 -83 l-32 -33 -32 33 -33 32
65 0 65 0 -33 -32z m-7 -98 c-3 -5 6 -26 21 -45 l26 -35 -73 0 -74 1 48 44
c48 44 64 55 52 35z m113 -213 l-3 -32 -133 -3 c-143 -3 -151 0 -139 51 6 22
8 22 142 19 l136 -3 -3 -32z m-18 -73 c0 -3 -5 -14 -10 -25 -9 -17 -22 -19
-102 -19 -71 0 -96 4 -110 17 -10 9 -18 20 -18 25 0 4 54 8 120 8 66 0 120 -3
120 -6z m-59 -83 c-6 -10 -22 -26 -37 -36 -26 -17 -27 -17 -63 19 l-36 36 73
0 c68 0 72 -1 63 -19z m83 -307 c3 -9 6 -20 6 -25 0 -5 -66 -9 -150 -9 -139 0
-150 1 -150 18 0 10 3 22 7 25 3 4 68 7 144 7 116 0 138 -2 143 -16z"/>
<path d="M7420 4851 c0 -11 28 -35 46 -37 17 -3 18 18 2 34 -14 14 -48 16 -48
3z"/>
<path d="M4450 5563 c-147 -25 -283 -127 -332 -252 -17 -44 -22 -77 -22 -151
0 -86 3 -101 31 -162 79 -168 257 -261 451 -238 77 10 174 55 222 105 l35 36
-58 56 -58 55 -32 -26 c-84 -69 -173 -84 -263 -42 -60 28 -107 82 -124 142
-18 64 -8 154 25 209 66 114 239 142 346 55 21 -16 42 -30 46 -30 5 0 35 23
67 51 l57 52 -33 34 c-76 79 -237 126 -358 106z"/>
<path d="M1692 5479 l3 -71 195 1 c168 1 200 -1 230 -16 39 -20 56 -57 46 -96
-11 -46 -41 -57 -162 -59 l-109 -3 -5 40 -5 40 -97 3 -98 3 0 -276 0 -275 243
0 c270 0 335 10 397 59 53 41 83 105 76 163 -7 69 -40 125 -92 158 l-45 28 32
23 c38 27 68 90 69 144 0 54 -37 124 -79 153 -68 45 -118 52 -368 52 l-234 0
3 -71z m489 -418 c36 -37 39 -82 6 -115 -26 -26 -102 -37 -222 -31 l-70 4 -3
85 -3 86 131 0 132 0 29 -29z"/>
<path d="M2540 5160 l0 -390 290 0 290 0 0 80 0 80 -190 0 -190 0 0 310 0 310
-100 0 -100 0 0 -390z"/>
<path d="M3452 5393 c-231 -520 -272 -613 -272 -618 0 -3 44 -5 98 -5 l98 0
31 78 30 77 179 0 178 0 31 -75 31 -75 97 -3 c61 -2 97 1 97 7 0 6 -41 104
-91 218 -140 319 -239 547 -239 550 0 2 -44 3 -99 3 l-99 0 -70 -157z m227
-182 c28 -68 51 -125 51 -127 0 -2 -49 -4 -110 -4 -63 0 -110 4 -110 9 0 23
104 261 111 254 4 -4 30 -64 58 -132z"/>
<path d="M4950 5160 l0 -390 100 0 100 0 0 103 0 103 48 47 c26 26 51 47 54
47 4 0 59 -67 123 -150 l117 -150 109 0 c60 0 109 3 109 6 0 5 -163 219 -291
381 l-42 53 124 132 c68 73 139 150 158 171 l35 37 -110 0 -111 0 -159 -172
-159 -173 -3 173 -2 172 -100 0 -100 0 0 -390z"/>
<path d="M5727 5538 c4 -7 62 -182 128 -388 l122 -375 105 -3 106 -3 15 48 c9
26 44 138 78 248 34 110 64 203 68 207 3 4 39 -97 79 -225 40 -128 77 -242 82
-255 10 -22 14 -23 112 -20 l101 3 23 70 c161 496 224 692 224 698 0 4 -41 6
-92 5 l-91 -3 -13 -40 c-15 -49 -143 -454 -150 -474 -2 -8 -7 -12 -9 -9 -3 3
-40 121 -83 264 l-78 259 -96 3 -95 3 -22 -73 c-61 -207 -149 -461 -155 -448
-3 8 -29 92 -57 185 -28 94 -62 207 -75 253 l-25 82 -105 0 c-82 0 -103 -3
-97 -12z"/>
<path d="M7860 5475 l0 -75 208 2 c184 3 211 1 235 -15 50 -32 48 -105 -3
-132 -21 -11 -60 -15 -140 -15 l-110 0 0 40 0 40 -95 0 -95 0 0 -276 0 -275
263 3 c244 3 266 5 319 26 121 48 169 172 111 285 -12 24 -78 80 -105 89 -5 2
8 22 30 44 98 98 73 238 -55 301 l-58 28 -252 3 -253 3 0 -76z m489 -411 c37
-31 42 -79 12 -115 -18 -23 -26 -24 -165 -27 l-146 -3 0 85 0 86 134 0 c130 0
135 -1 165 -26z"/>
</g>
</svg>
