<svg width="317" height="75" viewBox="0 0 317 75" fill="none" xmlns="http://www.w3.org/2000/svg">
<path d="M225.153 40.9625C223.161 37.6615 218.585 35.3874 212.829 35.3874C202.35 35.3874 194.675 42.5029 194.675 55.1936C194.675 67.3709 201.833 75 212.829 75C218.733 75 223.308 72.3592 225.227 69.058L225.891 74.2664H235.485V21.5805H225.153V40.9625ZM215.191 65.8304C209.435 65.8304 205.302 61.869 205.302 55.1936C205.302 48.6651 209.435 44.557 215.191 44.557C220.726 44.557 224.932 48.5916 224.932 55.1936C224.932 61.869 220.726 65.8304 215.191 65.8304Z" fill="#9BB0C2"/>
<path d="M275.957 65.3094C275.288 65.272 273.585 64.9301 273.37 62.457V49.9701C273.37 38.5725 264.563 34.7734 256.058 34.7734C246.285 34.7734 239.261 39.5965 238.644 47.6169H248.322C249.017 44.8403 251.754 43.0421 255.606 43.0421C259.972 43.0421 262.757 45.426 262.757 49.7466V50.5001H254.273C245.835 50.5001 242.011 53.973 242.011 53.973L242.163 53.9517C239.092 55.997 237.616 59.1857 237.616 63.0809C237.616 70.5302 243.186 75 251.843 75C257.638 75 262.155 72.9887 264.337 69.7109C265.165 73.063 268.026 74.255 271.488 74.255H275.653V74.2648H277.323V65.3094H275.957ZM262.756 59.6542C262.756 64.2728 259.746 66.8057 254.552 66.8057C251.09 66.8057 248.455 65.6137 248.455 62.4105C248.455 60.3246 249.659 58.239 254.176 58.239H262.756V59.6542Z" fill="#9BB0C2"/>
<path d="M296.513 35.314C308.489 35.314 317 43.3832 317 55.1936C317 67.0774 308.489 75 296.513 75C284.537 75 276.027 67.0774 276.027 55.1936C276.027 43.3832 284.537 35.314 296.513 35.314ZM296.513 66.2705C302.388 66.2705 306.229 61.869 306.229 55.1204C306.229 48.2981 302.388 44.0434 296.513 44.0434C290.638 44.0434 286.797 48.2981 286.797 55.1204C286.797 61.869 290.638 66.2705 296.513 66.2705Z" fill="#9BB0C2"/>
<path d="M191.894 39.7135V74.1984H175.923V42.9499C175.923 33.3523 171.279 28.4418 163.577 28.4418C155.195 28.4418 150.664 34.1335 150.664 43.508V74.1984H134.806V16.1656C139.492 16.1649 144.178 16.1642 148.864 16.1635C149.389 18.4707 149.913 20.7778 150.438 23.0849C153.496 18.2861 159.386 15.0496 168.221 15.0496C183.286 15.0496 191.894 24.8706 191.894 39.7135Z" fill="#808FAA"/>
<path d="M131.135 61.0167C131.058 61.0205 130.983 61.0282 130.905 61.0282H121.953C119.425 61.0282 117.376 58.9911 117.376 56.4783V54.9463C117.338 54.4527 117.319 53.9228 117.319 53.3507V29.5385H130.798V16.1635H117.23V0H101.497V16.1635H91.8093V29.5312H92.4001V29.5385H101.462V56.849C101.462 67.4573 107.125 74.2285 118.792 74.2285C122.949 74.2261 127.106 74.2236 131.263 74.2212C131.22 69.8197 131.178 65.4182 131.135 61.0167Z" fill="#808FAA"/>
<path d="M70.6514 14.5552C69.6773 14.456 68.6945 14.4163 67.7087 14.4387C60.4815 14.5426 53.6338 17.7015 50.1812 24.4546C48.9798 22.1781 47.4281 20.3122 45.6041 18.8316C44.0183 17.5186 42.2596 16.5605 40.4047 15.8838C37.7947 14.9078 34.8985 14.4337 31.8315 14.4337C30.8863 14.4337 29.9718 14.4825 29.0883 14.5761C29.0141 14.5813 28.9394 14.5853 28.8653 14.5909C27.1635 14.7196 25.6198 15.1171 24.2395 15.6615C21.7816 16.5497 19.7125 17.9064 18.1059 19.6855C17.1971 20.5691 16.6038 21.3121 16.351 21.6477L16.1726 21.0171L14.7279 15.5597H14.6285L14.6263 15.5519H0V16.7137L0.00270597 16.7176V74.1084H15.8606V41.3437C15.8606 32.6741 20.3913 28.508 27.0742 28.508C33.4174 28.508 37.7215 32.4488 37.7215 42.0193V74.1084H53.0129V41.6816C53.2394 32.5614 57.9968 28.508 64.2267 28.508C70.683 28.508 74.874 32.4488 74.874 41.231V74.221H90.8451V38.0785C90.8451 23.0535 81.4094 15.5716 70.6514 14.5552Z" fill="#808FAA"/>
</svg>
